<?xml version="1.0" encoding="UTF-8" standalone="no"?>
<svg
   version="1.1"
   width="792pt"
   height="612pt"
   id="svg7"
   viewBox="0 0 792 612"
   sodipodi:docname="LOGO.cdr"
   xmlns:inkscape="http://www.inkscape.org/namespaces/inkscape"
   xmlns:sodipodi="http://sodipodi.sourceforge.net/DTD/sodipodi-0.dtd"
   xmlns="http://www.w3.org/2000/svg"
   xmlns:svg="http://www.w3.org/2000/svg">
  <defs
     id="defs7" />
  <sodipodi:namedview
     id="namedview7"
     pagecolor="#ffffff"
     bordercolor="#000000"
     borderopacity="0.25"
     inkscape:showpageshadow="2"
     inkscape:pageopacity="0.0"
     inkscape:pagecheckerboard="0"
     inkscape:deskcolor="#d1d1d1"
     inkscape:document-units="pt" />
  
  <path
     d="M 194.1724,106.4911 V 519.5285 H 607.2097 V 106.4911 Z"
     style="fill:#1b1918;fill-opacity:0;fill-rule:evenodd"
     id="path2" />
  <path
     d="m 241.8304,220.263 v 185.4936 q 0,66.1138 66.1139,66.1138 h 185.4935 q 66.1139,0 66.1139,-66.1138 V 220.263 q 0,-66.1138 -66.1139,-66.1138 H 307.9443 q -66.1139,0 -66.1139,66.1138 z"
     style="fill:#ffffff;fill-rule:evenodd"
     id="path3" />
  <g
     id="Layer1000">
    <path
       d="m 281.67,292.3325 c 0,1.6183 0.6196,2.9333 1.8583,3.9447 1.2391,1.0114 2.7689,1.9468 4.5893,2.8065 1.8207,0.8598 3.8183,1.732 5.9928,2.617 2.1744,0.885 4.172,1.9596 5.9924,3.2238 1.8207,1.2643 3.3503,2.8446 4.5893,4.741 1.239,1.8964 1.8584,4.3112 1.8584,7.2442 0,2.3261 -0.4297,4.4376 -1.2895,6.334 -0.8597,1.8964 -2.048,3.5019 -3.5651,4.8166 -1.5171,1.315 -3.3378,2.3389 -5.4615,3.0722 -2.124,0.7334 -4.4504,1.0999 -6.9789,1.0999 -8.2429,0 -14.1597,-3.1099 -17.75,-9.3303 -0.5057,-0.8594 -0.7461,-1.7192 -0.7209,-2.5789 0.0255,-0.8598 0.2404,-1.6435 0.6449,-2.3516 0.4045,-0.7079 0.9734,-1.2895 1.7068,-1.7445 0.7333,-0.4552 1.5803,-0.6828 2.5412,-0.6828 1.4664,0 2.6802,0.392 3.6411,1.1758 0.9607,0.7837 1.9596,1.6435 2.9962,2.5789 1.0367,0.9357 2.2249,1.7955 3.5652,2.5793 1.3402,0.7837 3.1478,1.1758 5.4235,1.1758 1.9219,0 3.3378,-0.4425 4.248,-1.3275 0.9102,-0.885 1.3654,-1.9343 1.3654,-3.1481 0,-1.9216 -0.6069,-3.502 -1.8204,-4.741 -1.2138,-1.239 -2.7309,-2.3389 -4.5516,-3.2995 -1.8204,-0.961 -3.8052,-1.8967 -5.9544,-2.8069 -2.1492,-0.9102 -4.1341,-1.9976 -5.9548,-3.2618 -1.8204,-1.2643 -3.3375,-2.8191 -4.5513,-4.665 -1.2138,-1.8459 -1.8204,-4.1848 -1.8204,-7.0166 0,-2.5285 0.4425,-4.7029 1.3275,-6.5236 0.885,-1.8204 2.0733,-3.3123 3.5651,-4.4754 1.4919,-1.163 3.1986,-2.0355 5.1203,-2.6169 1.9216,-0.5817 3.9191,-0.8725 5.9924,-0.8725 1.6183,0 3.2493,0.1769 4.8929,0.5309 1.6435,0.3541 3.1986,0.8598 4.6649,1.5171 1.4667,0.6576 2.8321,1.4667 4.0964,2.4276 1.2642,0.9607 2.3513,2.0733 3.2615,3.3375 0.6069,0.8598 0.9482,1.7195 1.0242,2.579 0.076,0.8597 -0.0505,1.6435 -0.3793,2.3516 -0.3288,0.7081 -0.809,1.277 -1.4411,1.7067 -0.6321,0.4298 -1.3782,0.6449 -2.238,0.6449 -0.6066,0 -1.2515,-0.1392 -1.934,-0.4172 -0.6829,-0.2781 -1.3782,-0.7461 -2.0861,-1.4035 -1.315,-1.3147 -2.8445,-2.2881 -4.5893,-2.9202 -1.7447,-0.6322 -3.4262,-0.9482 -5.0445,-0.9482 -1.7699,0 -3.3503,0.4045 -4.7409,1.2135 -1.3907,0.8093 -2.086,1.9471 -2.086,3.4135 z m 61.5189,30.3423 c 1.5171,0 2.6549,0.455 3.4134,1.3655 0.7586,0.9102 1.1379,1.9468 1.1379,3.1098 0,1.1631 -0.3793,2.1873 -1.1379,3.0722 -0.7585,0.885 -1.8963,1.3275 -3.4134,1.3275 h -21.9223 c -1.1631,0 -2.2629,-0.2276 -3.2996,-0.6826 -1.0366,-0.4552 -1.9343,-1.0621 -2.6929,-1.8207 -0.7585,-0.7585 -1.3654,-1.656 -1.8207,-2.6929 -0.4549,-1.0366 -0.6826,-2.1365 -0.6826,-3.2995 v -35.5006 c 0,-1.163 0.2277,-2.2501 0.6826,-3.2615 0.4553,-1.0114 1.0622,-1.8964 1.8207,-2.6549 0.7586,-0.7586 1.6563,-1.3655 2.6929,-1.8207 1.0367,-0.455 2.1365,-0.6826 3.2996,-0.6826 h 21.1637 c 1.5171,0 2.6549,0.4425 3.4135,1.3275 0.7585,0.8849 1.1378,1.9088 1.1378,3.0721 0,1.1631 -0.3793,2.187 -1.1378,3.072 -0.7586,0.8849 -1.8964,1.3274 -3.4135,1.3274 H 324.832 c -1.77,0 -2.655,0.885 -2.655,2.6549 v 6.5237 c 0,1.1631 0.1897,1.9344 0.569,2.3136 0.3792,0.3793 1.1503,0.569 2.3133,0.569 h 13.0473 c 1.5171,0 2.6549,0.4424 3.4135,1.3274 0.7585,0.885 1.1378,1.9092 1.1378,3.0722 0,1.1631 -0.3793,2.1872 -1.1378,3.0722 -0.7586,0.885 -1.8964,1.3275 -3.4135,1.3275 h -13.0473 c -1.163,0 -1.9341,0.1896 -2.3133,0.5689 -0.3793,0.3792 -0.569,1.1503 -0.569,2.3136 v 8.4198 c 0,1.7195 0.885,2.5792 2.655,2.5792 z m 40.0515,0 c 1.5171,0 2.6549,0.455 3.4135,1.3655 0.7585,0.9102 1.1378,1.9468 1.1378,3.1098 0,1.1631 -0.3793,2.1873 -1.1378,3.0722 -0.7586,0.885 -1.8964,1.3275 -3.4135,1.3275 h -21.5427 c -1.1634,0 -2.2632,-0.2276 -3.2998,-0.6826 -1.0367,-0.4552 -1.9344,-1.0621 -2.693,-1.8207 -0.7585,-0.7585 -1.3654,-1.656 -1.8204,-2.6929 -0.4552,-1.0366 -0.6828,-2.1365 -0.6828,-3.2995 v -39.8999 c 0,-1.5679 0.4677,-2.7437 1.4034,-3.5275 0.9354,-0.7837 2.0353,-1.1758 3.2998,-1.1758 1.3147,0 2.4273,0.3921 3.3375,1.1758 0.9102,0.7838 1.3655,1.9596 1.3655,3.5275 v 34.9693 c 0,1.2642 0.4425,2.3389 1.3274,3.2238 0.885,0.885 1.9849,1.3275 3.2996,1.3275 z m 20.5569,-34.742 c -1.77,0 -2.655,0.885 -2.655,2.6549 v 8.0408 c 0,1.1631 0.1897,1.9344 0.5689,2.3136 0.3793,0.3793 1.1503,0.569 2.3137,0.569 h 13.047 c 1.5171,0 2.6549,0.4552 3.4135,1.3654 0.7585,0.9102 1.1378,1.9468 1.1378,3.1099 0,1.1633 -0.3793,2.1872 -1.1378,3.0722 -0.7586,0.885 -1.8964,1.3274 -3.4135,1.3274 h -13.047 c -1.1634,0 -1.9344,0.1897 -2.3137,0.569 -0.3792,0.3792 -0.5689,1.1505 -0.5689,2.3136 v 14.2608 c 0,1.5679 -0.4552,2.7434 -1.3654,3.5275 -0.9102,0.7837 -2.0228,1.1755 -3.3375,1.1755 -1.2646,0 -2.3644,-0.3918 -3.2998,-1.1755 -0.9358,-0.7841 -1.4035,-1.9596 -1.4035,-3.5275 v -39.9759 c 0,-1.163 0.2276,-2.2501 0.6829,-3.2615 0.455,-1.0114 1.0619,-1.8964 1.8204,-2.6549 0.7586,-0.7586 1.6563,-1.3655 2.6929,-1.8207 1.0366,-0.455 2.1365,-0.6826 3.2998,-0.6826 h 21.1635 c 1.5171,0 2.6549,0.4425 3.4135,1.3275 0.7585,0.8849 1.1378,1.9088 1.1378,3.0721 0,1.1631 -0.3793,2.187 -1.1378,3.072 -0.7586,0.8849 -1.8964,1.3274 -3.4135,1.3274 z"
       style="fill:#1d4875;fill-rule:evenodd"
       id="path4" />
    <g
       id="Layer1001">
      <path
         d="m 448.3304,281.0203 c 0.7157,0 1.2529,0.2086 1.6109,0.6264 0.3578,0.4176 0.5369,0.9009 0.5369,1.4496 0,0.5491 -0.1791,1.0324 -0.5369,1.45 -0.358,0.4178 -0.8952,0.6264 -1.6109,0.6264 h -2.9716 c -0.5488,0 -0.9127,0.0896 -1.0916,0.2685 -0.1791,0.1791 -0.2687,0.5431 -0.2687,1.0919 v 17.3267 c 0,0.7399 -0.2205,1.2946 -0.6622,1.6645 -0.4413,0.37 -0.9606,0.5551 -1.5573,0.5551 -0.6205,0 -1.1455,-0.1851 -1.575,-0.5551 -0.4297,-0.3699 -0.6446,-0.9246 -0.6446,-1.6645 v -17.3267 c 0,-0.5488 -0.0893,-0.9128 -0.2684,-1.0919 -0.1789,-0.1789 -0.5428,-0.2685 -1.0919,-0.2685 h -2.9713 c -0.7157,0 -1.2529,-0.2086 -1.6109,-0.6264 -0.358,-0.4176 -0.5369,-0.9009 -0.5369,-1.45 0,-0.5487 0.1789,-1.032 0.5369,-1.4496 0.358,-0.4178 0.8952,-0.6264 1.6109,-0.6264 z m 10.2382,5.6202 c 1.3127,0 2.5296,0.203 3.6516,0.6086 1.1216,0.4056 2.088,1.0023 2.8995,1.7901 0.8116,0.7874 1.444,1.76 1.8972,2.9174 0.4536,1.1577 0.6804,2.488 0.6804,3.9917 v 7.9115 c 0,0.7399 -0.203,1.2946 -0.6086,1.6645 -0.4057,0.37 -0.9068,0.5551 -1.5035,0.5551 -0.6205,0 -1.1336,-0.1851 -1.5395,-0.5551 -0.4057,-0.3699 -0.6086,-0.9246 -0.6086,-1.6645 v -7.5177 c 0,-0.9071 -0.1432,-1.7065 -0.4295,-2.3987 -0.2863,-0.6919 -0.6622,-1.2708 -1.1276,-1.7362 -0.4654,-0.4655 -1.0083,-0.8113 -1.6288,-1.0381 -0.6205,-0.2267 -1.2532,-0.3401 -1.8975,-0.3401 -0.6681,0 -1.3124,0.1134 -1.9329,0.3401 -0.6205,0.2268 -1.1696,0.5726 -1.647,1.0381 -0.4773,0.4654 -0.8592,1.0443 -1.1455,1.7362 -0.2863,0.6922 -0.4297,1.5035 -0.4297,2.4344 0,1.5514 0.4417,2.8043 1.3246,3.7587 0.883,0.9547 2.1481,1.4321 3.7948,1.4321 h 1.6466 c 0.6923,0 1.2053,0.2149 1.5395,0.6443 0.3339,0.4297 0.5012,0.919 0.5012,1.4678 0,0.5491 -0.1673,1.0324 -0.5012,1.4499 -0.3342,0.4176 -0.8472,0.6265 -1.5395,0.6265 h -1.6466 c -1.4559,0 -2.7683,-0.2387 -3.9379,-0.7161 -1.1693,-0.4773 -2.1657,-1.1335 -2.9891,-1.9689 -0.8235,-0.8354 -1.4619,-1.8258 -1.9154,-2.9713 -0.4533,-1.1455 -0.68,-2.3865 -0.68,-3.723 0,-1.6467 0.2684,-3.0787 0.8053,-4.2959 0.5371,-1.2172 1.2591,-2.2255 2.1659,-3.0249 0.9068,-0.7996 1.9511,-1.4023 3.1323,-1.8079 1.1815,-0.4056 2.4046,-0.6086 3.6695,-0.6086 z m 27.3503,15.8947 c 0.3101,0.358 0.4893,0.7458 0.5369,1.1634 0.0476,0.4178 -0.0119,0.7996 -0.1789,1.1457 -0.1672,0.3458 -0.4237,0.6384 -0.7698,0.8771 -0.3459,0.2386 -0.7577,0.358 -1.2351,0.358 -0.2625,0 -0.5309,-0.0598 -0.8053,-0.1792 -0.2744,-0.1193 -0.531,-0.3101 -0.7696,-0.5726 l -5.2625,-5.9785 c -0.0718,-0.1194 -0.1789,-0.1313 -0.3223,-0.0357 -0.2863,0.2148 -0.5726,0.4115 -0.8592,0.5907 -0.2863,0.1789 -0.5726,0.364 -0.8592,0.5547 -0.1193,0.0477 -0.1789,0.1432 -0.1789,0.2863 v 3.1147 c 0,0.7399 -0.2029,1.2946 -0.6086,1.6645 -0.4056,0.37 -0.9068,0.5551 -1.5035,0.5551 -0.6205,0 -1.1335,-0.1851 -1.5395,-0.5551 -0.4056,-0.3699 -0.6086,-0.9246 -0.6086,-1.6645 v -23.3407 c 0,-0.7399 0.203,-1.2949 0.6086,-1.6648 0.406,-0.3699 0.919,-0.5547 1.5395,-0.5547 0.5967,0 1.0979,0.1848 1.5035,0.5547 0.4057,0.3699 0.6086,0.9249 0.6086,1.6648 v 14.4983 c 0,0.1432 0.0596,0.2447 0.1789,0.3042 0.1193,0.0598 0.2387,0.042 0.358,-0.0536 1.1696,-1.0023 2.2314,-2.1537 3.1861,-3.4546 0.9548,-1.3005 1.647,-2.5715 2.0764,-3.8125 0.167,-0.4774 0.4176,-0.8235 0.7518,-1.0381 0.3342,-0.2149 0.6922,-0.3223 1.074,-0.3223 0.3101,0 0.6146,0.0658 0.9128,0.197 0.2985,0.1313 0.549,0.3161 0.7517,0.5548 0.203,0.2386 0.3402,0.519 0.4119,0.8413 0.0714,0.3223 0.0357,0.6862 -0.1074,1.0919 -0.406,1.1455 -0.9726,2.2969 -1.7005,3.4546 -0.728,1.1573 -1.5693,2.2612 -2.5237,3.3114 -0.0717,0.1193 -0.0717,0.2387 0,0.358 z m 15.8945,-1.9332 c 0.4535,-0.3818 0.9666,-0.5726 1.5395,-0.5726 0.5487,0 1.044,0.1908 1.4856,0.5726 0.4413,0.3818 0.6622,0.9071 0.6622,1.5752 0,0.5729 -0.2506,1.1038 -0.7518,1.5931 -0.5012,0.4892 -1.1455,0.9008 -1.9329,1.235 -0.7878,0.3342 -1.6708,0.5967 -2.6493,0.7875 -0.9785,0.191 -1.957,0.2866 -2.9356,0.2866 -1.6228,0 -3.0486,-0.2807 -4.2777,-0.8414 -1.2291,-0.5609 -2.2555,-1.2948 -3.0787,-2.2016 -0.8235,-0.9068 -1.438,-1.9452 -1.8437,-3.1144 -0.4059,-1.1696 -0.6086,-2.3627 -0.6086,-3.5799 0,-1.6708 0.2744,-3.1144 0.8232,-4.3316 0.5491,-1.2172 1.2711,-2.2255 2.166,-3.0252 0.8949,-0.7993 1.9094,-1.3901 3.043,-1.7719 1.1335,-0.3818 2.2731,-0.5729 3.4185,-0.5729 1.0503,0 2.0764,0.1551 3.0787,0.4655 1.0024,0.3101 1.8856,0.7577 2.6493,1.3424 0.7637,0.5848 1.3782,1.3065 1.8437,2.1657 0.4651,0.8592 0.6978,1.8496 0.6978,2.9713 0,1.1217 -0.2684,1.9689 -0.8053,2.5418 -0.5369,0.5729 -1.3306,1.0262 -2.3805,1.3604 l -8.3055,2.6132 c -0.1194,0.0479 -0.1848,0.1194 -0.1967,0.2149 -0.012,0.0955 0.0178,0.1789 0.0892,0.2506 0.4536,0.4056 0.9845,0.7279 1.5931,0.9666 0.6086,0.2387 1.3068,0.358 2.0942,0.358 0.406,0 0.8295,-0.036 1.2711,-0.1074 0.4414,-0.0718 0.877,-0.161 1.3065,-0.2685 0.4297,-0.1074 0.8175,-0.2446 1.1636,-0.4119 0.3458,-0.1669 0.6265,-0.3339 0.8411,-0.5011 z m -10.0236,-4.1525 c 0,0.1908 0.0836,0.2625 0.2505,0.2146 l 8.4127,-2.649 c 0.0479,-1.0978 -0.2922,-1.9332 -1.0202,-2.5058 -0.7279,-0.5729 -1.5811,-0.8592 -2.5597,-0.8592 -0.5964,0 -1.205,0.1193 -1.8255,0.358 -0.6205,0.2384 -1.1755,0.5964 -1.6648,1.0738 -0.4892,0.4773 -0.883,1.08 -1.1812,1.8079 -0.2985,0.728 -0.4356,1.5812 -0.4118,2.5597 z"
         style="fill:#1d4875;fill-rule:evenodd"
         id="path5" />
      <path
         d="m 451.6877,325.6773 c 0.6183,-0.0457 1.1506,0.1318 1.5971,0.5323 0.4464,0.4005 0.6466,0.9672 0.6009,1.6999 -0.0229,0.4578 -0.2633,0.9616 -0.7211,1.5109 -0.4581,0.5496 -1.0877,1.0647 -1.889,1.5455 -0.8011,0.4807 -1.7399,0.8872 -2.8159,1.2191 -1.0761,0.332 -2.255,0.4978 -3.5371,0.4978 -1.717,0 -3.3083,-0.3203 -4.7736,-0.9615 -1.4649,-0.6409 -2.7243,-1.5109 -3.7774,-2.6099 -1.0531,-1.099 -1.8774,-2.3924 -2.4724,-3.8806 -0.5953,-1.4882 -0.8929,-3.0677 -0.8929,-4.739 0,-1.6713 0.2976,-3.2453 0.8929,-4.7219 0.595,-1.4766 1.4193,-2.7644 2.4724,-3.8633 1.0531,-1.099 2.3125,-1.969 3.7774,-2.6099 1.4653,-0.6412 3.0566,-0.9618 4.7736,-0.9618 1.2821,0 2.461,0.1661 3.5371,0.498 1.076,0.332 2.0148,0.7385 2.8159,1.2192 0.8013,0.4808 1.4309,0.9958 1.889,1.5452 0.4578,0.5496 0.6982,1.0533 0.7211,1.5111 0.0457,0.7325 -0.1545,1.2992 -0.6009,1.7 -0.4465,0.4005 -0.9788,0.578 -1.5971,0.5323 -0.4577,-0.0229 -0.9099,-0.189 -1.3563,-0.498 -0.4465,-0.309 -0.9329,-0.6409 -1.4596,-0.9958 -0.5267,-0.3549 -1.1103,-0.6755 -1.7512,-0.9615 -0.6412,-0.2863 -1.3737,-0.4295 -2.198,-0.4295 -1.6484,0 -3.0277,0.3949 -4.138,1.1849 -1.1104,0.7897 -1.946,1.7799 -2.507,2.9704 -0.561,1.1906 -0.8356,2.484 -0.8243,3.8806 0.0116,1.3964 0.292,2.6901 0.8413,3.8807 0.5497,1.1902 1.3796,2.1804 2.49,2.9704 1.1103,0.7897 2.4896,1.1846 4.138,1.1846 0.8243,0 1.5568,-0.1429 2.198,-0.4292 0.6409,-0.286 1.2245,-0.6066 1.7512,-0.9615 0.5267,-0.3549 1.0131,-0.6811 1.4596,-0.9788 0.4464,-0.2976 0.8986,-0.4578 1.3563,-0.4807 z m 13.3243,-11.6416 c 1.2591,0 2.427,0.1944 3.5028,0.5836 1.076,0.3892 2.0032,0.9618 2.7816,1.7172 0.7787,0.7555 1.3853,1.6884 1.8201,2.7987 0.4352,1.1106 0.6526,2.3868 0.6526,3.829 v 7.5895 c 0,0.7098 -0.1945,1.2421 -0.5837,1.597 -0.3892,0.3547 -0.8699,0.5321 -1.4425,0.5321 -0.595,0 -1.0874,-0.1774 -1.4766,-0.5321 -0.3892,-0.3549 -0.5837,-0.8872 -0.5837,-1.597 v -7.2116 c 0,-0.87 -0.1374,-1.637 -0.4121,-2.3009 -0.2747,-0.6639 -0.6353,-1.2192 -1.0817,-1.6656 -0.4465,-0.4462 -0.9675,-0.7784 -1.5628,-0.9959 -0.5952,-0.2174 -1.2018,-0.3262 -1.8198,-0.3262 -0.6412,0 -1.2594,0.1088 -1.8544,0.3262 -0.5953,0.2175 -1.122,0.5497 -1.5798,0.9959 -0.458,0.4464 -0.8243,1.0017 -1.099,1.6656 -0.2746,0.6639 -0.4121,1.4423 -0.4121,2.3352 0,1.4882 0.4235,2.6901 1.2708,3.6059 0.8469,0.9156 2.0605,1.3737 3.6399,1.3737 h 1.5798 c 0.6638,0 1.1562,0.2061 1.4768,0.618 0.3203,0.4121 0.4808,0.8815 0.4808,1.4079 0,0.5267 -0.1605,0.9904 -0.4808,1.391 -0.3206,0.4005 -0.813,0.6009 -1.4768,0.6009 h -1.5798 c -1.3963,0 -2.6555,-0.229 -3.7774,-0.6868 -1.1217,-0.4578 -2.0775,-1.0874 -2.8676,-1.8887 -0.7897,-0.8014 -1.4023,-1.7516 -1.8371,-2.8503 -0.4351,-1.099 -0.6525,-2.2895 -0.6525,-3.5716 0,-1.5798 0.2576,-2.9534 0.7727,-4.121 0.5151,-1.1676 1.2076,-2.1348 2.0775,-2.9019 0.87,-0.7667 1.8717,-1.345 3.005,-1.7342 1.1333,-0.3892 2.3066,-0.5836 3.5198,-0.5836 z m 20.8451,0.3089 c 0.6409,0 1.122,0.2004 1.4423,0.601 0.3206,0.4008 0.4808,0.8643 0.4808,1.3909 0,0.5264 -0.1602,0.9958 -0.4808,1.408 -0.3203,0.4122 -0.8014,0.6182 -1.4423,0.6182 h -1.2705 c -0.5266,0 -1.0303,0.08 -1.5111,0.2404 -0.4808,0.1602 -0.8986,0.4062 -1.2535,0.7382 -0.3549,0.3319 -0.6352,0.7613 -0.8413,1.2877 -0.2061,0.5267 -0.309,1.1563 -0.309,1.889 v 8.0357 c 0,0.7098 -0.1947,1.2421 -0.5839,1.597 -0.3892,0.3547 -0.87,0.5321 -1.4423,0.5321 -0.5953,0 -1.0874,-0.1774 -1.4766,-0.5321 -0.3892,-0.3549 -0.5839,-0.8872 -0.5839,-1.597 v -8.4135 c 0,-1.3507 0.2234,-2.5183 0.6696,-3.5028 0.4464,-0.9845 1.036,-1.7915 1.7688,-2.4211 0.7324,-0.6295 1.5794,-1.0989 2.5412,-1.4079 0.9615,-0.3093 1.9687,-0.4638 3.022,-0.4638 z m 16.3463,13.0842 c 0.4351,-0.3665 0.9272,-0.5497 1.4769,-0.5497 0.5263,0 1.0014,0.1832 1.4249,0.5497 0.4238,0.3662 0.6356,0.8699 0.6356,1.5109 0,0.5496 -0.2404,1.059 -0.7212,1.5281 -0.4807,0.4694 -1.099,0.8643 -1.8544,1.1849 -0.7557,0.3206 -1.6027,0.5723 -2.5413,0.7554 -0.9388,0.1831 -1.8773,0.2747 -2.8159,0.2747 -1.5568,0 -2.9248,-0.269 -4.104,-0.807 -1.1789,-0.538 -2.1634,-1.2419 -2.9531,-2.1118 -0.79,-0.87 -1.3794,-1.8661 -1.7686,-2.9877 -0.3892,-1.122 -0.5839,-2.2666 -0.5839,-3.4342 0,-1.6024 0.2633,-2.9877 0.7897,-4.1553 0.5267,-1.1676 1.2192,-2.1348 2.0778,-2.9019 0.8586,-0.7667 1.8315,-1.3334 2.9189,-1.6999 1.0876,-0.3662 2.1806,-0.5493 3.2796,-0.5493 1.0075,0 1.9919,0.1488 2.9535,0.4464 0.9615,0.2976 1.8085,0.7268 2.5412,1.2878 0.7325,0.561 1.3221,1.2535 1.7686,2.0775 0.4464,0.8243 0.6695,1.7745 0.6695,2.8505 0,1.0761 -0.2574,1.8887 -0.7727,2.4381 -0.5151,0.5496 -1.2762,0.9845 -2.2836,1.3051 l -7.9671,2.5069 c -0.1145,0.0457 -0.1774,0.1143 -0.189,0.2061 -0.0114,0.0916 0.0172,0.1715 0.0858,0.2404 0.4352,0.3892 0.9445,0.6982 1.5282,0.9272 0.5839,0.2288 1.2535,0.3433 2.0092,0.3433 0.3892,0 0.7954,-0.0343 1.2189,-0.1029 0.4235,-0.0689 0.8413,-0.1548 1.2535,-0.2577 0.4121,-0.1029 0.784,-0.2347 1.1163,-0.3949 0.3319,-0.1604 0.6009,-0.3206 0.8067,-0.4807 z m -9.6154,-3.9835 c 0,0.1831 0.0802,0.2517 0.2404,0.2058 l 8.0702,-2.5413 c 0.0457,-1.0531 -0.2806,-1.8544 -0.9788,-2.4038 -0.6982,-0.5493 -1.5168,-0.824 -2.4554,-0.824 -0.5723,0 -1.1562,0.1142 -1.7512,0.3433 -0.5953,0.229 -1.1276,0.5723 -1.597,1.0301 -0.4695,0.458 -0.847,1.036 -1.1333,1.7342 -0.286,0.6985 -0.4179,1.5168 -0.3949,2.4557 z"
         style="fill:#1d4875;fill-rule:evenodd"
         id="path6" />
    </g>
    <path
       d="m 493.3379,333.5019 c 0.6331,0.3132 1.2699,0.6192 1.8985,0.9416 0.594,0.3044 1.1831,0.6189 1.7676,0.9413 0.7763,0.4278 1.552,0.8572 2.3168,1.3054 0.5803,0.3399 1.1438,0.7086 1.7132,1.0671 0.1992,0.1254 0.2246,0.1195 0.3789,-0.0762 0.5734,-0.7269 1.1457,-1.4548 1.7257,-2.1765 0.5568,-0.693 1.1232,-1.3783 1.6842,-2.0677 0.1844,-0.2269 0.3561,-0.4643 0.5492,-0.6833 0.4333,-0.4918 0.8791,-0.9728 1.3148,-1.4624 0.6296,-0.7082 1.2547,-1.4203 1.8818,-2.1305 0.0364,-0.0213 0.08,-0.0361 0.1081,-0.0653 0.2443,-0.2556 0.4879,-0.512 0.727,-0.7724 0.042,-0.046 0.063,-0.1115 0.0939,-0.1679 0.1832,-0.179 0.3664,-0.3579 0.5496,-0.5368 0.1652,-0.1723 0.3303,-0.3447 0.4954,-0.517 l 0.001,-5e-4 c 0.0102,-0.0112 0.0207,-0.0224 0.0309,-0.0336 l 3e-4,-5e-4 c 0.3366,-0.3403 0.6731,-0.6807 1.0096,-1.021 0,0 0.007,-0.004 0.007,-0.004 0.008,-0.009 0.017,-0.0175 0.0255,-0.0263 l 0.004,-0.008 c 0.1632,-0.1622 0.3267,-0.3243 0.4899,-0.4865 0,0 0.006,-0.004 0.006,-0.004 0.009,-0.009 0.0177,-0.0183 0.0266,-0.0275 l 0.004,-0.006 c 0.1648,-0.1617 0.3296,-0.3235 0.4948,-0.4852 0,0 0.002,-7e-4 0.002,-7e-4 0.0105,-0.0105 0.0213,-0.0209 0.0322,-0.0314 l 3e-4,-10e-4 c 0.1724,-0.1648 0.3444,-0.3296 0.5168,-0.4944 0.5046,-0.4748 1.0066,-0.9521 1.5143,-1.4239 1.5496,-1.4411 3.1535,-2.8202 4.8207,-4.1229 1.054,-0.8237 2.1253,-1.6273 3.2193,-2.3969 1.0556,-0.7426 2.1465,-1.4347 3.2291,-2.1387 0.4886,-0.3177 0.9864,-0.622 1.4934,-0.9094 0.6591,-0.3736 1.3306,-0.7251 1.9984,-1.0845 0.2466,-0.1329 0.4955,-0.2612 0.7435,-0.3919 0.0875,-0.0454 0.1746,-0.0903 0.2612,-0.1352 v 0 c 0.0427,0.004 0.0848,0.008 0.1499,0.0138 -0.0774,0.0857 -0.1338,0.148 -0.1902,0.2099 -0.4854,0.429 -0.9827,0.8452 -1.4539,1.2893 -0.8379,0.7907 -1.6634,1.5947 -2.4866,2.4005 -0.4497,0.4405 -0.8988,0.8832 -1.3224,1.348 -0.8589,0.9434 -1.7028,1.9004 -2.548,2.8564 -0.3387,0.3834 -0.6724,0.7719 -0.9927,1.1707 -0.6764,0.8414 -1.3504,1.6846 -2.0097,2.5392 -0.5529,0.7172 -1.09,1.4468 -1.6223,2.1797 -0.5128,0.7064 -1.0178,1.4187 -1.5116,2.1383 -0.5637,0.8212 -1.1136,1.6519 -1.6652,2.4813 -0.2857,0.4291 -0.5664,0.8622 -0.8425,1.2975 -0.2985,0.4702 -0.5927,0.943 -0.8826,1.4187 -0.4928,0.8087 -0.9813,1.6203 -1.4705,2.4313 -0.2936,0.4866 -0.592,0.9702 -0.8766,1.462 -0.284,0.4912 -0.5536,0.9906 -0.8288,1.487 -0.5243,0.9466 -1.0539,1.8902 -1.5701,2.841 -0.5282,0.9735 -1.044,1.9535 -1.5627,2.9319 -0.3192,0.6022 -0.631,1.2083 -0.9524,1.8094 -0.0691,0.1291 -0.165,0.244 -0.2486,0.3655 -0.0308,0.0286 -0.0613,0.0577 -0.0927,0.086 -0.2729,0.2453 -0.546,0.4905 -0.819,0.7355 -0.2437,0.1083 -0.4874,0.2163 -0.7311,0.3247 -0.0147,-0.005 -0.0297,-0.0152 -0.0441,-0.0145 -0.3243,0.0164 -0.6483,0.0384 -0.9728,0.0496 -0.0982,0.003 -0.1974,-0.0223 -0.2961,-0.0345 -0.4261,-0.1211 -0.7436,-0.4045 -1.0471,-0.7066 -0.3826,-0.3805 -0.7601,-0.7662 -1.1415,-1.1478 -0.6462,-0.6464 -1.2938,-1.2916 -1.9408,-1.9371 -0.6711,-0.6694 -1.3415,-1.3395 -2.0136,-2.008 -0.3694,-0.3674 -0.7435,-0.7302 -1.112,-1.0986 -0.4037,-0.4032 -0.803,-0.811 -1.205,-1.2161 -0.1219,-0.1228 -0.2465,-0.243 -0.3698,-0.3641 -0.1574,-0.1764 -0.3088,-0.3589 -0.4741,-0.5273 -0.1308,-0.1336 -0.2786,-0.2502 -0.4189,-0.3743 l -0.004,-0.004 c -0.2271,-0.2318 -0.4542,-0.4632 -0.6813,-0.695 -0.1194,-0.1281 -0.2367,-0.2584 -0.3593,-0.3835 -0.0503,-0.0515 -0.1119,-0.0916 -0.1682,-0.1369 l -0.003,-0.001 c -0.0218,-0.0375 -0.0368,-0.0821 -0.0665,-0.1117 -0.3602,-0.3608 -0.7234,-0.7187 -1.0843,-1.0785 -0.4608,-0.46 -0.918,-0.9233 -1.3818,-1.38 -0.1298,-0.128 -0.2773,-0.2377 -0.4168,-0.3558 -0.121,-0.1511 -0.2435,-0.3008 -0.3617,-0.4538 -0.0214,-0.0276 -0.0252,-0.0686 -0.0372,-0.1037 -0.0116,-0.1006 -0.0248,-0.201 -0.0345,-0.3018 -0.041,-0.4291 0.0526,-0.8034 0.4155,-1.0812 0.2045,-0.1566 0.4083,-0.304 0.6828,-0.2692 0.2289,0.0289 0.4564,0.0693 0.6846,0.1047 0.0953,0.0292 0.1951,0.0486 0.2854,0.089 0.4396,0.1973 0.8759,0.4019 1.3152,0.5999 0.1853,0.0837 0.3751,0.1569 0.5628,0.2351 0.0236,0.0216 0.0436,0.0508 0.0712,0.064 0.247,0.1185 0.4946,0.2354 0.7434,0.3503 0.0877,0.0404 0.1788,0.0732 0.2684,0.1097 z"
       style="fill:#30a629;fill-rule:evenodd"
       id="path7" />
  </g>
</svg>
